<svg width="51" height="51" viewBox="0 0 51 51" fill="none" xmlns="http://www.w3.org/2000/svg">
<g clip-path="url(#clip0_2497_51360)">
<path d="M6.00077 7.90771C4.52633 7.90771 3.11229 8.49343 2.06971 9.53601C1.02712 10.5786 0.441406 11.9926 0.441406 13.4671L0.441406 38.4842C0.441406 39.9586 1.02712 41.3727 2.06971 42.4153C3.11229 43.4578 4.52633 44.0436 6.00077 44.0436H44.9163C46.3907 44.0436 47.8048 43.4578 48.8474 42.4153C49.8899 41.3727 50.4757 39.9586 50.4757 38.4842V13.4671C50.4757 13.4671 50.4757 7.90771 44.9163 7.90771H6.00077Z" fill="#FFAC33"/>
<path d="M0.441406 14.8579H50.4757V21.8071H0.441406V14.8579Z" fill="#EEEEEE"/>
<path d="M6 27.3662H44.9155V35.7053H6V27.3662Z" fill="#F4F7F9"/>
<path d="M26.848 34.3147C24.4811 34.3147 23.5944 32.633 23.4165 31.8116C22.6562 31.8686 21.9155 32.2328 20.9078 32.8735C19.8446 33.5489 18.6396 34.3147 17.1191 34.3147C15.4555 34.3147 14.4451 33.3766 14.3394 31.5351C14.3353 31.4572 14.3922 31.2738 14.3686 31.2738C11.7863 31.2738 9.91835 33.7213 9.90029 33.7463C9.79271 33.8938 9.65705 34.0185 9.50111 34.1134C9.34516 34.2083 9.17201 34.2715 8.99159 34.2992C8.81117 34.327 8.62704 34.3188 8.44978 34.2752C8.27252 34.2316 8.10562 34.1534 7.95868 34.0451C7.81146 33.9372 7.68694 33.8013 7.59224 33.6452C7.49755 33.4891 7.43452 33.3159 7.40678 33.1355C7.37903 32.9551 7.3871 32.7709 7.43052 32.5936C7.47395 32.4163 7.55188 32.2493 7.65986 32.1021C7.76688 31.9562 10.3228 28.7554 14.3394 28.7554C17.0316 28.7554 17.1858 30.6664 17.2275 31.3794L17.2373 31.5309C17.9127 31.4836 18.6146 31.0389 19.4193 30.526C20.7549 29.6782 22.4116 28.6206 24.6312 29.189C25.8418 29.4989 26.0308 30.6219 26.103 31.0458C26.1211 31.1515 26.1475 31.3099 26.1711 31.3599C26.1809 31.3599 26.3741 31.4864 26.9731 31.5406C28.1128 31.6448 29.365 31.1528 30.6909 30.633C32.0641 30.0938 33.4845 29.5379 35.0147 29.5379C39.7249 29.5379 41.6401 31.8102 41.843 32.0688C41.9597 32.2121 42.0467 32.3772 42.0988 32.5545C42.1509 32.7318 42.1671 32.9178 42.1465 33.1014C42.1259 33.2851 42.0689 33.4628 41.9787 33.6242C41.8886 33.7855 41.7672 33.9273 41.6217 34.0412C41.4761 34.155 41.3093 34.2387 41.1309 34.2873C40.9526 34.336 40.7664 34.3485 40.5832 34.3243C40.4 34.3001 40.2234 34.2396 40.0639 34.1463C39.9043 34.053 39.765 33.9288 39.654 33.781C39.6206 33.7435 38.3614 32.3161 35.0161 32.3161C34.0112 32.3161 32.8924 32.7539 31.7069 33.2181C30.3045 33.7685 28.324 34.3147 26.848 34.3147Z" fill="#8899A6"/>
</g>
<defs>
<clipPath id="clip0_2497_51360">
<rect width="50.0342" height="50.0342" fill="white" transform="translate(0.441406 0.958984)"/>
</clipPath>
</defs>
</svg>
